<svg xmlns="http://www.w3.org/2000/svg" viewBox="0 0 80 19"><path d="M10.602 10.5H7.711l1.446-5 1.445 5zM80 .15h-8.065l-3.487 9.874L64.96.15H56.82v11.445c0 1.72-1.38 2.168-2.253 2.168-.872 0-2.18-.448-2.18-2.168V.15H32.843v2.543C31.243.973 28.7 0 25.504 0c-5.159 0-9.373 3.89-9.664 8.826L13.007.15H5.74L0 18.402h5.813l1.09-3.591h5.086l1.018 3.59h5.885l-.944-2.917A9.771 9.771 0 0 0 25.504 19c4.723 0 8.429-2.244 9.083-6.209H28.92c-.8 1.272-2.107 1.721-3.415 1.721-2.689 0-4.142-2.244-4.142-5.01 0-2.77 1.38-5.013 4.142-5.013 1.453 0 2.615.299 3.415 1.646h8.21v12.267h5.45V6.135h4.142v6.582c0 2.244.726 3.814 2.18 4.787 1.525.972 3.27 1.495 5.667 1.495 2.253 0 4.287-.524 5.74-1.57 1.453-.972 2.107-2.693 2.107-5.012V7.556l3.778 10.846H70.7l3.996-11.52v11.52H80V.15z"/></svg>
